<?xml version="1.0" encoding="UTF-8"?>
<svg version="1.1" xmlns="http://www.w3.org/2000/svg" width="559" height="582">
<path d="M0 0 C0.80759766 -0.00128906 1.61519531 -0.00257813 2.44726562 -0.00390625 C8.84966452 0.10922851 13.71268153 1.51259076 19.4375 4.375 C20.0975 4.375 20.7575 4.375 21.4375 4.375 C21.4375 5.035 21.4375 5.695 21.4375 6.375 C22.9225 5.88 22.9225 5.88 24.4375 5.375 C24.4375 6.035 24.4375 6.695 24.4375 7.375 C25.5925 7.478125 26.7475 7.58125 27.9375 7.6875 C32.43117592 8.24325497 36.26360346 9.69155732 40.4375 11.375 C41.489375 11.725625 42.54125 12.07625 43.625 12.4375 C46.4375 13.375 46.4375 13.375 48.75 14.375 C51.08916622 15.24538743 53.18994955 15.76298991 55.625 16.25 C60.83052959 17.34498619 65.55483998 19.3055282 70.4375 21.375 C73.56409635 22.69630155 76.47960767 23.68081463 79.8125 24.3125 C82.77791332 24.9331679 85.42442422 25.69471919 88.1875 26.9375 C91.26793717 28.46340412 91.26793717 28.46340412 94.125 28.8125 C97.14922233 29.54812165 98.3349632 31.14852419 100.4375 33.375 C94.45487135 36.41329832 88.45600711 39.41273866 82.375 42.25 C81.49714844 42.65992188 80.61929687 43.06984375 79.71484375 43.4921875 C77.4375 44.375 77.4375 44.375 74.4375 44.375 C74.1075 45.035 73.7775 45.695 73.4375 46.375 C68.12980769 49.375 68.12980769 49.375 64.4375 49.375 C64.1075 50.035 63.7775 50.695 63.4375 51.375 C61.51542671 52.46256812 59.54686186 53.46823318 57.5625 54.4375 C56.9540625 54.73624023 56.345625 55.03498047 55.71875 55.34277344 C48.01166944 59.10803541 40.24354047 62.74852766 32.48046875 66.39648438 C30.63788608 67.27902158 28.81732382 68.2071814 27 69.140625 C24.4375 70.375 24.4375 70.375 22.4375 70.375 C22.1075 71.035 21.7775 71.695 21.4375 72.375 C16.12980769 75.375 16.12980769 75.375 12.4375 75.375 C12.1075 76.035 11.7775 76.695 11.4375 77.375 C9.26471403 78.49002193 7.10453761 79.51095072 4.875 80.5 C3.49913648 81.12570886 2.12416418 81.75338038 0.75 82.3828125 C0.03714844 82.70926758 -0.67570312 83.03572266 -1.41015625 83.37207031 C-5.5267434 85.29028039 -9.57844884 87.33751226 -13.62890625 89.39086914 C-16.87873868 91.037647 -20.13399936 92.65464058 -23.4375 94.19140625 C-29.51306134 97.04886204 -34.73445155 99.69971034 -39.1328125 104.89453125 C-40.79001021 106.61059118 -42.39853873 107.40208999 -44.5625 108.375 C-45.18125 108.74625 -45.8 109.1175 -46.4375 109.5 C-49.21617042 110.64415841 -51.58876695 110.51016968 -54.5625 110.375 C-54.8925 111.035 -55.2225 111.695 -55.5625 112.375 C-56.2225 112.045 -56.8825 111.715 -57.5625 111.375 C-57.5625 112.035 -57.5625 112.695 -57.5625 113.375 C-55.9125 113.375 -54.2625 113.375 -52.5625 113.375 C-51.38196671 117.50686652 -51.61097044 119.56064676 -53.5625 123.375 C-57.75694444 130.56944444 -57.75694444 130.56944444 -60.5625 133.375 C-60.8925 134.035 -61.2225 134.695 -61.5625 135.375 C-62.2225 135.375 -62.8825 135.375 -63.5625 135.375 C-63.830625 135.931875 -64.09875 136.48875 -64.375 137.0625 C-65.67149496 139.58725334 -66.98726323 142.01214484 -68.5625 144.375 C-69.2225 144.375 -69.8825 144.375 -70.5625 144.375 C-70.93375 145.1484375 -70.93375 145.1484375 -71.3125 145.9375 C-78.76939655 160.47844828 -78.76939655 160.47844828 -84.5625 163.375 C-85.5689275 165.03779327 -86.56835407 166.70483484 -87.5625 168.375 C-88.0265625 168.83777344 -88.490625 169.30054688 -88.96875 169.77734375 C-91.36706753 172.18153951 -93.20171352 174.96472902 -95.16015625 177.73046875 C-95.85431641 178.54451172 -95.85431641 178.54451172 -96.5625 179.375 C-97.2225 179.375 -97.8825 179.375 -98.5625 179.375 C-98.7171875 180.3340625 -98.7171875 180.3340625 -98.875 181.3125 C-99.101875 181.993125 -99.32875 182.67375 -99.5625 183.375 C-100.5525 183.705 -101.5425 184.035 -102.5625 184.375 C-103.25571767 185.69472402 -103.91765299 187.03097821 -104.5625 188.375 C-106.56659729 190.73975283 -108.67131799 192.98716829 -110.78515625 195.25390625 C-112.75515332 197.34142227 -112.75515332 197.34142227 -113.5625 200.375 C-114.70251627 201.54854616 -115.8483137 202.71721872 -117.02734375 203.8515625 C-118.84252299 205.65288541 -120.54950734 207.52755208 -122.25 209.4375 C-123.12205078 210.41396484 -123.12205078 210.41396484 -124.01171875 211.41015625 C-125.52160079 213.3231806 -126.56129692 215.16051635 -127.5625 217.375 C-128.2225 217.375 -128.8825 217.375 -129.5625 217.375 C-129.7171875 218.303125 -129.7171875 218.303125 -129.875 219.25 C-130.5625 221.375 -130.5625 221.375 -133.5625 223.375 C-134.01625 224.2 -134.47 225.025 -134.9375 225.875 C-136.95210383 228.97439052 -137.96327865 229.59450587 -141.5625 230.375 C-144.09996186 229.26223599 -146.1410172 228.17448507 -148.4375 226.6875 C-149.62006413 225.95067158 -150.80496277 225.21757644 -151.9921875 224.48828125 C-152.57581055 224.12814941 -153.15943359 223.76801758 -153.76074219 223.39697266 C-155.59461663 222.35678317 -157.43377269 221.53138179 -159.3828125 220.73046875 C-162.5625 219.375 -162.5625 219.375 -164.5625 217.375 C-165.91765095 216.62939486 -167.29520034 215.92369338 -168.6875 215.25 C-169.41195312 214.89679688 -170.13640625 214.54359375 -170.8828125 214.1796875 C-171.43710938 213.91414062 -171.99140625 213.64859375 -172.5625 213.375 C-172.5625 212.715 -172.5625 212.055 -172.5625 211.375 C-173.41070312 211.12492188 -174.25890625 210.87484375 -175.1328125 210.6171875 C-178.82829239 209.27873351 -182.07689793 207.50174591 -185.4375 205.5 C-190.39884553 202.60052938 -195.38098159 199.86212883 -200.5625 197.375 C-200.5625 196.715 -200.5625 196.055 -200.5625 195.375 C-201.243125 195.106875 -201.92375 194.83875 -202.625 194.5625 C-205.95960809 193.21446694 -209.25993237 191.79963702 -212.5625 190.375 C-212.5625 189.715 -212.5625 189.055 -212.5625 188.375 C-213.738125 188.0346875 -213.738125 188.0346875 -214.9375 187.6875 C-219.68551625 185.96839067 -224.08352552 183.69415279 -228.5625 181.375 C-228.5625 180.715 -228.5625 180.055 -228.5625 179.375 C-230.2125 179.045 -231.8625 178.715 -233.5625 178.375 C-233.5625 177.715 -233.5625 177.055 -233.5625 176.375 C-234.531875 176.16875 -235.50125 175.9625 -236.5 175.75 C-240.74986388 174.56419277 -243.98706022 172.26023579 -247.546875 169.71484375 C-249.61873578 168.21079829 -249.61873578 168.21079829 -252.5625 167.375 C-252.5625 166.715 -252.5625 166.055 -252.5625 165.375 C-253.325625 165.16875 -254.08875 164.9625 -254.875 164.75 C-260.0669801 162.81400742 -264.74899744 160.10172399 -269.5625 157.375 C-270.31015625 156.9521875 -271.0578125 156.529375 -271.828125 156.09375 C-273.40975685 155.19363431 -274.98677601 154.2854183 -276.5625 153.375 C-276.5625 152.715 -276.5625 152.055 -276.5625 151.375 C-278.5425 150.715 -280.5225 150.055 -282.5625 149.375 C-282.5625 148.715 -282.5625 148.055 -282.5625 147.375 C-283.8928125 147.00375 -283.8928125 147.00375 -285.25 146.625 C-289.80321726 144.90680481 -293.38263116 142.05695339 -296.5625 138.375 C-296.5625 137.715 -296.5625 137.055 -296.5625 136.375 C-294.60664675 135.37015796 -292.64773763 134.37126195 -290.6875 133.375 C-289.59695313 132.818125 -288.50640625 132.26125 -287.3828125 131.6875 C-284.5625 130.375 -284.5625 130.375 -282.5625 130.375 C-282.0675 129.385 -282.0675 129.385 -281.5625 128.375 C-278.95478355 127.02956088 -276.35611222 125.77537674 -273.6875 124.5625 C-272.53689087 124.03172852 -272.53689087 124.03172852 -271.36303711 123.49023438 C-269.81896421 122.77900541 -268.27364335 122.07047915 -266.72705078 121.36474609 C-264.83318586 120.49877177 -262.94536052 119.61961378 -261.05859375 118.73828125 C-253.82127507 115.375 -253.82127507 115.375 -251.5625 115.375 C-251.0675 113.89 -251.0675 113.89 -250.5625 112.375 C-245.33903025 109.76326513 -238.46921795 106.375 -232.5625 106.375 C-232.2325 105.715 -231.9025 105.055 -231.5625 104.375 C-229.6640625 103.26171875 -229.6640625 103.26171875 -227.1875 102.0625 C-226.28128906 101.62292969 -225.37507813 101.18335938 -224.44140625 100.73046875 C-219.83681594 98.56250018 -215.20451708 96.46129981 -210.5625 94.375 C-204.64895666 91.70535092 -198.75148469 89.00367745 -192.87109375 86.26171875 C-191.74251953 85.73642578 -190.61394531 85.21113281 -189.45117188 84.66992188 C-187.11402471 83.58136946 -184.77812153 82.49014287 -182.44335938 81.39648438 C-181.32638672 80.87763672 -180.20941406 80.35878906 -179.05859375 79.82421875 C-178.04982178 79.35330811 -177.0410498 78.88239746 -176.00170898 78.3972168 C-173.5625 77.375 -173.5625 77.375 -171.5625 77.375 C-171.2325 76.715 -170.9025 76.055 -170.5625 75.375 C-167.98814129 73.82802856 -165.22257177 72.6389694 -162.5 71.375 C-161.76072266 71.01921875 -161.02144531 70.6634375 -160.25976562 70.296875 C-156.56328074 68.56344027 -153.05316841 67.16105656 -149.06640625 66.25 C-147.91011719 65.96125 -146.75382813 65.6725 -145.5625 65.375 C-145.2325 64.715 -144.9025 64.055 -144.5625 63.375 C-138.00299667 59.54368069 -130.88078665 56.56836568 -123.9375 53.5 C-123.23874756 53.18973877 -122.53999512 52.87947754 -121.82006836 52.55981445 C-116.8056693 50.375 -116.8056693 50.375 -114.5625 50.375 C-114.2325 49.715 -113.9025 49.055 -113.5625 48.375 C-111.89583333 48.04166667 -110.22916667 47.70833333 -108.5625 47.375 C-108.2325 46.715 -107.9025 46.055 -107.5625 45.375 C-101.21634615 42.375 -101.21634615 42.375 -98.5625 42.375 C-98.5625 41.715 -98.5625 41.055 -98.5625 40.375 C-89.00660367 36.41420595 -89.00660367 36.41420595 -84.5 35.25 C-83.530625 34.96125 -82.56125 34.6725 -81.5625 34.375 C-81.2325 33.715 -80.9025 33.055 -80.5625 32.375 C-79.5725 32.375 -78.5825 32.375 -77.5625 32.375 C-77.2325 31.715 -76.9025 31.055 -76.5625 30.375 C-74.24761212 29.09096063 -71.94187003 27.90310286 -69.5625 26.75 C-68.84698975 26.39736084 -68.13147949 26.04472168 -67.39428711 25.68139648 C-61.64097006 22.86018482 -55.83414252 20.15672779 -50.02075195 17.4621582 C-43.92739027 14.60999109 -37.99348014 11.48876264 -32.09399414 8.25610352 C-26.03637018 4.96918535 -26.03637018 4.96918535 -22.5625 4.375 C-21.9025 4.705 -21.2425 5.035 -20.5625 5.375 C-20.5625 4.715 -20.5625 4.055 -20.5625 3.375 C-19.64017578 3.30152344 -19.64017578 3.30152344 -18.69921875 3.2265625 C-17.48685547 3.11441406 -17.48685547 3.11441406 -16.25 3 C-15.44949219 2.93039062 -14.64898437 2.86078125 -13.82421875 2.7890625 C-8.87694608 1.88334419 -5.41552101 -0.00879857 0 0 Z " fill="#FEFEFE" transform="translate(420.5625,344.625)"/>
<path d="M0 0 C0.78761719 0.42539062 1.57523438 0.85078125 2.38671875 1.2890625 C3.05316406 1.64226563 3.71960938 1.99546875 4.40625 2.359375 C6.06640625 3.3359375 7.7265625 4.3125 9.38671875 5.2890625 C9.38671875 5.9490625 9.38671875 6.6090625 9.38671875 7.2890625 C10.04671875 7.3509375 10.70671875 7.4128125 11.38671875 7.4765625 C14.81678994 8.40554011 17.13849764 9.90535772 20.08984375 11.8359375 C22.59244078 13.41921317 25.15258263 14.82617871 27.76171875 16.2265625 C32.24872766 18.64359769 36.62044537 21.20361051 40.9765625 23.84765625 C44.04497951 25.68273871 47.16457169 27.41367668 50.296875 29.13671875 C54.48300705 31.44495978 58.61605678 33.84664544 62.76171875 36.2265625 C66.94808409 38.62013357 71.16725614 40.95448455 75.38671875 43.2890625 C75.38671875 43.9490625 75.38671875 44.6090625 75.38671875 45.2890625 C75.98484375 45.3921875 76.58296875 45.4953125 77.19921875 45.6015625 C79.77666694 46.41161764 80.8173545 47.09195255 82.38671875 49.2890625 C82.82421875 51.7265625 82.82421875 51.7265625 82.38671875 54.2890625 C80.51171875 56.6015625 80.51171875 56.6015625 78.38671875 58.2890625 C77.72671875 58.2890625 77.06671875 58.2890625 76.38671875 58.2890625 C76.38671875 58.9490625 76.38671875 59.6090625 76.38671875 60.2890625 C75.39671875 60.2890625 74.40671875 60.2890625 73.38671875 60.2890625 C73.38671875 60.9490625 73.38671875 61.6090625 73.38671875 62.2890625 C72.39671875 62.2890625 71.40671875 62.2890625 70.38671875 62.2890625 C70.05671875 62.9490625 69.72671875 63.6090625 69.38671875 64.2890625 C67.81960848 65.52505293 66.20828896 66.70556011 64.57421875 67.8515625 C63.26517578 68.78162109 63.26517578 68.78162109 61.9296875 69.73046875 C59.61688449 71.14799317 57.98027942 71.70396421 55.38671875 72.2890625 C54.032392 73.60106654 52.69938393 74.93537654 51.38671875 76.2890625 C48.68947971 77.92375283 47.60550889 78.2890625 44.38671875 78.2890625 C44.38671875 78.9490625 44.38671875 79.6090625 44.38671875 80.2890625 C38.63671875 83.2890625 38.63671875 83.2890625 36.38671875 83.2890625 C36.38671875 83.9490625 36.38671875 84.6090625 36.38671875 85.2890625 C35.39671875 85.2890625 34.40671875 85.2890625 33.38671875 85.2890625 C33.05671875 85.9490625 32.72671875 86.6090625 32.38671875 87.2890625 C30.40782914 88.01600154 28.40717317 88.68722501 26.38671875 89.2890625 C26.38671875 89.9490625 26.38671875 90.6090625 26.38671875 91.2890625 C25.77868408 91.57749023 25.17064941 91.86591797 24.54418945 92.16308594 C17.3508769 95.65585645 10.75438911 99.77640073 4.09179688 104.1796875 C2.89780273 104.953125 2.89780273 104.953125 1.6796875 105.7421875 C0.97352295 106.20786133 0.2673584 106.67353516 -0.46020508 107.15332031 C-2.84029444 108.40881138 -4.96453062 108.88454922 -7.61328125 109.2890625 C-7.94328125 107.6390625 -8.27328125 105.9890625 -8.61328125 104.2890625 C-9.93328125 104.2890625 -11.25328125 104.2890625 -12.61328125 104.2890625 C-12.32453125 105.2378125 -12.03578125 106.1865625 -11.73828125 107.1640625 C-10.88832321 112.70578891 -14.50798614 116.98881839 -17.61328125 121.2890625 C-18.27328125 121.9490625 -18.93328125 122.6090625 -19.61328125 123.2890625 C-20.27328125 124.2790625 -20.93328125 125.2690625 -21.61328125 126.2890625 C-22.27328125 126.2890625 -22.93328125 126.2890625 -23.61328125 126.2890625 C-23.85949219 126.88847656 -24.10570312 127.48789063 -24.359375 128.10546875 C-27.86958799 134.21826957 -37.38389367 138.31265321 -43.61328125 141.2890625 C-44.27328125 141.2890625 -44.93328125 141.2890625 -45.61328125 141.2890625 C-45.61328125 141.9490625 -45.61328125 142.6090625 -45.61328125 143.2890625 C-46.20173828 143.57241455 -46.79019531 143.8557666 -47.39648438 144.14770508 C-54.15787688 147.45901644 -60.6376527 151.14137914 -67.11328125 154.9765625 C-74.70365708 159.43503866 -82.30502966 163.86717396 -89.98828125 168.1640625 C-90.73658203 168.58647217 -91.48488281 169.00888184 -92.25585938 169.4440918 C-97.37426919 172.2890625 -97.37426919 172.2890625 -99.61328125 172.2890625 C-99.61328125 172.9490625 -99.61328125 173.6090625 -99.61328125 174.2890625 C-100.75925781 174.89234375 -101.90523437 175.495625 -103.0859375 176.1171875 C-104.61591839 176.92441668 -106.14586445 177.73171186 -107.67578125 178.5390625 C-108.42794922 178.93480469 -109.18011719 179.33054688 -109.95507812 179.73828125 C-113.50435431 181.61279075 -117.02359398 183.51188577 -120.48828125 185.5390625 C-123.33442516 187.13290309 -125.40615851 187.90032035 -128.61328125 188.2890625 C-128.61328125 188.6190625 -128.61328125 188.9490625 -128.61328125 189.2890625 C-133.56328125 189.2890625 -138.51328125 189.2890625 -143.61328125 189.2890625 C-144.27328125 187.9690625 -144.93328125 186.6490625 -145.61328125 185.2890625 C-146.77085937 185.32386719 -147.9284375 185.35867187 -149.12109375 185.39453125 C-150.66014165 185.42268457 -152.19920536 185.44998306 -153.73828125 185.4765625 C-154.49882812 185.50169922 -155.259375 185.52683594 -156.04296875 185.55273438 C-161.01570735 185.61703703 -164.24944607 184.94500692 -168.61328125 182.2890625 C-168.61328125 181.6290625 -168.61328125 180.9690625 -168.61328125 180.2890625 C-169.3477095 180.16616348 -170.08213776 180.04326447 -170.83882141 179.91664124 C-173.52237184 179.30962607 -175.56210284 178.49033716 -178.00463867 177.24780273 C-179.25569649 176.61726234 -179.25569649 176.61726234 -180.5320282 175.97398376 C-181.41864639 175.51979568 -182.30526459 175.0656076 -183.21875 174.59765625 C-184.1391658 174.13295425 -185.0595816 173.66825226 -186.00788879 173.18946838 C-188.94177863 171.70753027 -191.87156944 170.21772332 -194.80078125 168.7265625 C-197.74105408 167.23255361 -200.68218091 165.74033339 -203.62580872 164.25294495 C-205.45637999 163.32773889 -207.28496327 162.39858724 -209.1113739 161.4651947 C-210.34824699 160.83938255 -210.34824699 160.83938255 -211.61010742 160.20092773 C-212.33671066 159.8308812 -213.0633139 159.46083466 -213.81193542 159.07957458 C-215.59065445 158.15511165 -215.59065445 158.15511165 -217.61328125 158.2890625 C-217.61328125 157.6290625 -217.61328125 156.9690625 -217.61328125 156.2890625 C-218.33185303 156.17498047 -219.0504248 156.06089844 -219.79077148 155.94335938 C-222.76464707 155.25397381 -225.064845 154.21887827 -227.7734375 152.8203125 C-229.21106445 152.08748047 -229.21106445 152.08748047 -230.67773438 151.33984375 C-231.66708984 150.82808594 -232.65644531 150.31632813 -233.67578125 149.7890625 C-235.64394253 148.77496772 -237.61392676 147.76440115 -239.5859375 146.7578125 C-240.45484619 146.30857422 -241.32375488 145.85933594 -242.21899414 145.39648438 C-244.36442854 144.40416354 -246.30564941 143.76228577 -248.61328125 143.2890625 C-248.61328125 142.6290625 -248.61328125 141.9690625 -248.61328125 141.2890625 C-249.27328125 140.9590625 -249.93328125 140.6290625 -250.61328125 140.2890625 C-248.21853633 137.51619996 -245.98164909 136.62176456 -242.61328125 135.2890625 C-240.95432406 134.41777279 -239.30904351 133.52011523 -237.67578125 132.6015625 C-233.17544974 130.11840956 -228.63906188 127.7292391 -224.05078125 125.4140625 C-222.28541016 124.52074219 -222.28541016 124.52074219 -220.484375 123.609375 C-217.61328125 122.2890625 -217.61328125 122.2890625 -215.61328125 122.2890625 C-215.28328125 121.6290625 -214.95328125 120.9690625 -214.61328125 120.2890625 C-213.27994792 119.95572917 -211.94661458 119.62239583 -210.61328125 119.2890625 C-210.28328125 118.6290625 -209.95328125 117.9690625 -209.61328125 117.2890625 C-207.64119568 115.8226399 -205.71631822 114.54747205 -203.61328125 113.2890625 C-202.86433594 112.83660156 -202.11539063 112.38414062 -201.34375 111.91796875 C-195.2612522 108.5366747 -190.5318364 107.62664765 -183.61328125 108.2890625 C-183.33484375 106.95875 -183.33484375 106.95875 -183.05078125 105.6015625 C-180.36361152 99.40938877 -173.85828804 96.76820292 -168.140625 93.6796875 C-165.21711901 92.07108142 -162.35678192 90.36868962 -159.48828125 88.6640625 C-152.52409118 84.61920463 -147.08283524 82.03822985 -138.9453125 81.5 C-136.62533706 81.36040756 -136.62533706 81.36040756 -134.5 80.703125 C-132.61328125 80.2890625 -132.61328125 80.2890625 -129.61328125 81.2890625 C-129.61328125 80.6290625 -129.61328125 79.9690625 -129.61328125 79.2890625 C-127.96328125 79.2890625 -126.31328125 79.2890625 -124.61328125 79.2890625 C-124.61328125 78.9590625 -124.61328125 78.6290625 -124.61328125 78.2890625 C-121.76022996 77.78185338 -118.90611311 77.28312616 -116.05078125 76.7890625 C-115.25091797 76.64597656 -114.45105469 76.50289063 -113.62695312 76.35546875 C-108.88207725 75.54206146 -104.44164504 75.23645321 -99.61328125 75.2890625 C-97.91638928 75.0324107 -96.22591248 74.72472181 -94.55078125 74.3515625 C-90.91498933 73.56889584 -87.28826758 72.8693235 -83.61328125 72.2890625 C-83.61328125 71.6290625 -83.61328125 70.9690625 -83.61328125 70.2890625 C-84.60328125 70.7840625 -84.60328125 70.7840625 -85.61328125 71.2890625 C-88.95088245 71.78194694 -92.31672046 72.04202448 -95.67578125 72.3515625 C-97.0515332 72.48788086 -97.0515332 72.48788086 -98.45507812 72.62695312 C-114.53401761 74.14254416 -114.53401761 74.14254416 -119.61328125 71.2890625 C-120.27328125 70.9590625 -120.93328125 70.6290625 -121.61328125 70.2890625 C-121.25596333 67.5377145 -120.85739361 66.49988681 -118.72265625 64.65625 C-117.9440625 64.16382812 -117.16546875 63.67140625 -116.36328125 63.1640625 C-115.595 62.66648438 -114.82671875 62.16890625 -114.03515625 61.65625 C-110.91684409 59.89591249 -107.86211042 58.56658009 -104.36328125 57.7890625 C-103.78578125 57.6240625 -103.20828125 57.4590625 -102.61328125 57.2890625 C-102.28328125 56.6290625 -101.95328125 55.9690625 -101.61328125 55.2890625 C-96.56251646 51.36580329 -91.03891559 48.40505997 -85.29296875 45.6484375 C-82.24537632 44.10242851 -79.35127383 42.36707174 -76.42578125 40.6015625 C-72.13942068 38.04963134 -68.42507077 36.46527772 -63.61328125 35.2890625 C-63.28328125 34.6290625 -62.95328125 33.9690625 -62.61328125 33.2890625 C-61.27994792 32.95572917 -59.94661458 32.62239583 -58.61328125 32.2890625 C-58.28328125 31.6290625 -57.95328125 30.9690625 -57.61328125 30.2890625 C-52.44694853 26.29569818 -46.84439649 24.06319948 -40.61328125 22.2890625 C-40.61328125 21.6290625 -40.61328125 20.9690625 -40.61328125 20.2890625 C-39.62328125 20.2890625 -38.63328125 20.2890625 -37.61328125 20.2890625 C-37.28328125 19.6290625 -36.95328125 18.9690625 -36.61328125 18.2890625 C-35.62328125 17.9590625 -34.63328125 17.6290625 -33.61328125 17.2890625 C-33.15953125 16.7940625 -32.70578125 16.2990625 -32.23828125 15.7890625 C-30.14409244 13.85596514 -28.39177433 13.66453454 -25.61328125 13.2890625 C-25.61328125 12.6290625 -25.61328125 11.9690625 -25.61328125 11.2890625 C-21.96112652 9.26168527 -18.28881726 7.27367395 -14.61328125 5.2890625 C-13.01613281 4.39574219 -13.01613281 4.39574219 -11.38671875 3.484375 C-10.34773437 2.92492187 -9.30875 2.36546875 -8.23828125 1.7890625 C-6.80355469 1.00015625 -6.80355469 1.00015625 -5.33984375 0.1953125 C-2.61328125 -0.7109375 -2.61328125 -0.7109375 0 0 Z " fill="#FEFEFE" transform="translate(281.61328125,16.7109375)"/>
<path d="M0 0 C2.00720923 0.28674418 4.0085944 0.61866701 6 1 C7.62363578 5.28882231 8.25082634 8.82956814 8.25396729 13.40696716 C8.25960693 14.67563629 8.26524658 15.94430542 8.27105713 17.25141907 C8.26716908 18.64474545 8.26307278 20.03807126 8.25878906 21.43139648 C8.26150113 22.90859143 8.26506328 24.38578503 8.26940918 25.86297607 C8.27851059 29.86506312 8.274998 33.86704681 8.26865101 37.86913562 C8.26357843 42.06323695 8.26828605 46.25732958 8.27142334 50.45143127 C8.27505972 57.49506209 8.27027292 64.53865095 8.26074219 71.58227539 C8.24986249 79.71658871 8.25338101 87.85080173 8.264395 95.98511261 C8.27348227 102.97722589 8.27474598 109.96930904 8.26951766 116.96142632 C8.26640534 121.13386653 8.26596823 125.30625966 8.27259064 129.47869682 C8.27838428 133.40297495 8.27433037 137.32712428 8.26280212 141.25138855 C8.26016613 142.68846485 8.26090244 144.12555207 8.26532745 145.56262398 C8.27082625 147.53042834 8.26269537 149.4982565 8.25396729 151.46604919 C8.25321323 152.56532966 8.25245918 153.66461012 8.25168228 154.79720211 C7.84451921 159.97858011 6.26672752 164.7189952 4.16015625 169.4453125 C3.6487207 170.59580078 3.6487207 170.59580078 3.12695312 171.76953125 C2.77568359 172.54683594 2.42441406 173.32414063 2.0625 174.125 C1.71509766 174.91003906 1.36769531 175.69507813 1.00976562 176.50390625 C-0.77794505 180.49679675 -2.63422467 184.30672064 -5 188 C-4.0925 187.54625 -3.185 187.0925 -2.25 186.625 C-0.41619324 185.70809662 1.43065601 184.81377037 3.3125 184 C5.35003098 183.04145794 5.35003098 183.04145794 6 180 C6.33 180.66 6.66 181.32 7 182 C7.66 182 8.32 182 9 182 C9 191.57 9 201.14 9 211 C5.00563759 211.9985906 4.42167271 212.08491002 0.875 210.75 C-2.41524369 209.55600352 -5.69079196 208.50283768 -9.0625 207.5625 C-12.19079543 206.63986909 -14.99469246 205.58912263 -17.875 204.0625 C-25.0906881 200.24242983 -33.15953548 198.16863912 -41 196 C-41.99 195.67 -42.98 195.34 -44 195 C-44 194.34 -44 193.68 -44 193 C-44.99 193.33 -45.98 193.66 -47 194 C-49.375 193.1875 -49.375 193.1875 -52 192 C-55.9302081 190.34517554 -59.88750271 189.12892083 -64 188 C-64 187.34 -64 186.68 -64 186 C-64.54527344 185.89042969 -65.09054687 185.78085937 -65.65234375 185.66796875 C-70.51861766 184.64480347 -75.17011453 183.35108399 -79.8671875 181.72265625 C-81.80803934 181.06504162 -83.77837653 180.49612665 -85.75 179.9375 C-88.59773242 179.11603872 -91.27441453 178.15630899 -94 177 C-94 176.34 -94 175.68 -94 175 C-95.77111844 175.47811177 -97.54188483 175.9575278 -99.3125 176.4375 C-100.29863281 176.70433594 -101.28476562 176.97117187 -102.30078125 177.24609375 C-104.21517526 177.78079425 -106.11433615 178.37144538 -108 179 C-111.125 179.125 -111.125 179.125 -114 179 C-115 178 -115 178 -115.12304783 176.268363 C-115.12212604 175.50972737 -115.12120424 174.75109175 -115.12025452 173.96946716 C-115.12162918 173.10143463 -115.12300385 172.2334021 -115.12442017 171.33906555 C-115.12082489 170.37953476 -115.11722961 169.42000397 -115.11352539 168.43139648 C-115.11367142 167.42663269 -115.11381744 166.4218689 -115.1139679 165.38665771 C-115.1132683 162.04811483 -115.10547374 158.70962695 -115.09765625 155.37109375 C-115.09579224 153.06323782 -115.09436826 150.75538149 -115.09336853 148.44752502 C-115.08954204 142.35982174 -115.07971065 136.27214214 -115.06866455 130.18444824 C-115.05845323 123.97778646 -115.05387151 117.77112087 -115.04882812 111.56445312 C-115.0380885 99.37629165 -115.02101052 87.18814779 -115 75 C-114.34 75 -113.68 75 -113 75 C-112.67 72.69 -112.34 70.38 -112 68 C-111.34 68 -110.68 68 -110 68 C-109.9071875 67.42378906 -109.814375 66.84757812 -109.71875 66.25390625 C-108.83235969 63.47430186 -107.49100298 62.05498062 -105.5 59.9375 C-103.21172538 57.4944855 -102.07316243 56.21948729 -101 53 C-99.515 52.505 -99.515 52.505 -98 52 C-97.525625 51.505 -97.05125 51.01 -96.5625 50.5 C-94.73482443 48.74543145 -93.41973785 48.5646055 -91 48 C-90.67 47.34 -90.34 46.68 -90 46 C-85.79382126 43.58144723 -81.48007474 42.11720809 -76.85546875 40.74609375 C-74.80328914 40.15908435 -74.80328914 40.15908435 -74 38 C-72.328125 36.78125 -72.328125 36.78125 -70.25 35.5 C-69.23679687 34.86578125 -69.23679687 34.86578125 -68.203125 34.21875 C-65.85921541 32.92211916 -63.48815843 31.98931262 -61 31 C-57.930663 29.44314838 -54.88435555 27.84698691 -51.83984375 26.2421875 C-49 25 -49 25 -45 25 C-44.67 24.34 -44.34 23.68 -44 23 C-37.64705882 19 -37.64705882 19 -34 19 C-34 18.34 -34 17.68 -34 17 C-33.39994141 16.7721582 -32.79988281 16.54431641 -32.18164062 16.30957031 C-25.75079892 13.81034529 -19.63066724 10.90711008 -13.5 7.75 C-11.74145332 6.84531414 -9.98112345 5.9440833 -8.21875 5.046875 C-7.45498047 4.65338867 -6.69121094 4.25990234 -5.90429688 3.85449219 C-4 3 -4 3 -2 3 C-1.67 2.34 -1.34 1.68 -1 1 C-0.67 0.67 -0.34 0.34 0 0 Z " fill="#FEFEFE" transform="translate(521,159)"/>
<path d="M0 0 C4.13347071 0.47239665 7.35761877 2.05174957 11 4 C11 4.66 11 5.32 11 6 C12.65 6.33 14.3 6.66 16 7 C16 7.66 16 8.32 16 9 C16.969375 9.226875 17.93875 9.45375 18.9375 9.6875 C23.69229318 11.02234973 27.77811307 13.49175879 32 16 C32 16.66 32 17.32 32 18 C32.7425 18.12375 33.485 18.2475 34.25 18.375 C36.80141485 18.95486701 38.7267573 19.73708739 41 21 C41 21.66 41 22.32 41 23 C42.65 23.33 44.3 23.66 46 24 C46 24.66 46 25.32 46 26 C47.1446875 26.309375 47.1446875 26.309375 48.3125 26.625 C52.64392647 28.24010818 56.49451898 30.38763245 60.51171875 32.66015625 C63.01720663 34.10092508 63.01720663 34.10092508 66 35 C66 35.66 66 36.32 66 37 C67.11375 37.185625 67.11375 37.185625 68.25 37.375 C70.80141485 37.95486701 72.7267573 38.73708739 75 40 C75 40.66 75 41.32 75 42 C75.66 42 76.32 42 77 42 C77.04627253 52.52652818 77.08184327 63.0530323 77.10362434 73.57964134 C77.1140764 78.46719318 77.12826144 83.35467561 77.15087891 88.2421875 C77.17255671 92.95596629 77.1845579 97.66967818 77.18975449 102.38350296 C77.19345937 104.18490274 77.20069374 105.98629872 77.21146011 107.78767014 C77.22590787 110.30432901 77.22798078 112.82070889 77.22705078 115.33740234 C77.23424133 116.08762161 77.24143188 116.83784088 77.24884033 117.61079407 C77.22810432 122.77189568 77.22810432 122.77189568 75 125 C73.52123755 125.91043211 72.01825509 126.78207266 70.5 127.625 C69.7059375 128.07101562 68.911875 128.51703125 68.09375 128.9765625 C66 130 66 130 64 130 C63.67 130.66 63.34 131.32 63 132 C61.01421414 133.24522211 58.98426711 134.42027935 56.9375 135.5625 C56.32277832 135.90821045 55.70805664 136.2539209 55.07470703 136.61010742 C53.05294782 137.74579324 51.02692562 138.87356333 49 140 C46.82922385 141.208544 44.65905265 142.41812393 42.49047852 143.63061523 C41.10599882 144.40410239 39.71982739 145.17457113 38.33178711 145.94165039 C35.7795229 147.36458845 33.30283058 148.7701055 30.97265625 150.5390625 C28.19745089 152.59436311 25.15238207 154.04849034 22.0625 155.5625 C21.45470703 155.86607422 20.84691406 156.16964844 20.22070312 156.48242188 C17.55261486 157.80351412 14.90666413 159.03533339 12.12109375 160.08984375 C9.82955734 160.8028829 9.82955734 160.8028829 9 163 C6.25 165.25 6.25 165.25 3 167 C0.125 166.25 0.125 166.25 -2 165 C-2 164.34 -2 163.68 -2 163 C-2.85851562 162.73445312 -3.71703125 162.46890625 -4.6015625 162.1953125 C-8.02910808 160.98976199 -11.14173798 159.52755614 -14.375 157.875 C-15.43460937 157.33617187 -16.49421875 156.79734375 -17.5859375 156.2421875 C-18.38257813 155.83226562 -19.17921875 155.42234375 -20 155 C-20 154.34 -20 153.68 -20 153 C-21.65 152.67 -23.3 152.34 -25 152 C-25 151.34 -25 150.68 -25 150 C-25.82113281 149.76796875 -26.64226562 149.5359375 -27.48828125 149.296875 C-31.72605866 147.7318671 -35.34012084 145.59173252 -39.1875 143.25 C-40.68928729 142.35019771 -42.1918934 141.45176064 -43.6953125 140.5546875 C-44.42524414 140.11866211 -45.15517578 139.68263672 -45.90722656 139.23339844 C-50.20469833 136.70063743 -54.59522906 134.34033186 -59 132 C-59 131.34 -59 130.68 -59 130 C-59.8353125 129.814375 -59.8353125 129.814375 -60.6875 129.625 C-63.22114364 128.94023145 -65.57921032 128.00866237 -68 127 C-68 126.34 -68 125.68 -68 125 C-69.32 125 -70.64 125 -72 125 C-72.26977495 114.39549052 -72.50678563 103.79080275 -72.70202446 93.18464375 C-72.79371223 88.25969098 -72.89665974 83.33551177 -73.02539062 78.41137695 C-73.14921747 73.65894902 -73.24340004 68.90677137 -73.31708145 64.15331078 C-73.35038887 62.34021703 -73.39436271 60.52728675 -73.44918442 58.71471596 C-73.52419134 56.17441082 -73.56117483 53.63616711 -73.58935547 51.0949707 C-73.62027786 50.34618652 -73.65120026 49.59740234 -73.68305969 48.82592773 C-73.6837421 45.96423392 -73.55806125 43.69319868 -71.72293472 41.41368675 C-68.61492011 38.71249254 -66.02534195 37.57504885 -62 37 C-61.67 36.34 -61.34 35.68 -61 35 C-59.22265625 33.9296875 -59.22265625 33.9296875 -57.0625 32.875 C-56.35222656 32.52179688 -55.64195312 32.16859375 -54.91015625 31.8046875 C-53 31 -53 31 -51 31 C-50.67 30.34 -50.34 29.68 -50 29 C-47 27 -47 27 -44 27 C-43.67 26.34 -43.34 25.68 -43 25 C-22.31034483 10 -22.31034483 10 -14 10 C-13.67 9.01 -13.34 8.02 -13 7 C-9.91290883 5.48557791 -6.97567595 4.23108115 -3.625 3.4375 C-3.08875 3.293125 -2.5525 3.14875 -2 3 C-1.67 2.34 -1.34 1.68 -1 1 C-0.67 0.67 -0.34 0.34 0 0 Z " fill="#FEFEFE" transform="translate(276,201)"/>
<path d="M0 0 C0 0.66 0 1.32 0 2 C2.97 2.495 2.97 2.495 6 3 C6 3.66 6 4.32 6 5 C6.72574219 5.11214844 7.45148438 5.22429687 8.19921875 5.33984375 C11.12563993 6.02961387 13.22287809 7.05510814 15.8125 8.5625 C16.60269531 9.01753906 17.39289063 9.47257812 18.20703125 9.94140625 C19.09455078 10.46541016 19.09455078 10.46541016 20 11 C20 11.66 20 12.32 20 13 C20.99 13.2475 21.98 13.495 23 13.75 C28.08764994 15.20065375 33.22598356 17.22598356 37 21 C38.99065541 22.01847486 40.99248185 23.01517978 43 24 C45.35075975 25.30493076 47.67404138 26.650944 50 28 C50 28.66 50 29.32 50 30 C51.03125 30.268125 52.0625 30.53625 53.125 30.8125 C56.6485042 31.80998897 59.76880827 33.2661898 63 35 C63 35.66 63 36.32 63 37 C63.58007812 37.17015625 64.16015625 37.3403125 64.7578125 37.515625 C69.79959219 39.07974147 73.66077205 40.92638021 78 44 C82.25768394 46.47991416 86.58106702 48.82052627 91 51 C91 51.66 91 52.32 91 53 C91.73347656 53.11601562 92.46695313 53.23203125 93.22265625 53.3515625 C96.02901909 54.0067752 97.96552366 54.92089627 100.4375 56.375 C103.90541384 58.37571952 107.39879236 60.24556551 111 62 C111 62.66 111 63.32 111 64 C111.66 64.33 112.32 64.66 113 65 C104.67166576 69.01045128 96.33876434 73.01127815 88 77 C87.13407227 77.41427246 86.26814453 77.82854492 85.37597656 78.25537109 C83.2737272 79.25841383 81.16894484 80.25580537 79.0625 81.25 C77.91910156 81.79140625 76.77570313 82.3328125 75.59765625 82.890625 C73 84 73 84 71 84 C70.67 84.66 70.34 85.32 70 86 C68.31591797 86.87915039 68.31591797 86.87915039 66.1171875 87.78515625 C59.71587411 90.52007879 53.55397613 93.69889818 47.34765625 96.84570312 C29.19227249 106 29.19227249 106 26 106 C25.67 106.66 25.34 107.32 25 108 C18.53326129 111.33135024 11.93746573 111.30077482 5 110 C5.66 110.33 6.32 110.66 7 111 C6.74609375 112.890625 6.74609375 112.890625 6 115 C0.569568 118.31516122 -6.83569575 119.14352311 -13 118 C-16.27564357 116.65450338 -19.33358541 115.11980883 -22.43359375 113.41015625 C-24.99890422 111.90053079 -24.99890422 111.90053079 -28 111 C-28 110.34 -28 109.68 -28 109 C-28.99 108.773125 -29.98 108.54625 -31 108.3125 C-35.42356351 107.05508624 -39.42423951 104.89775915 -43 102 C-43 101.34 -43 100.68 -43 100 C-44.29587036 99.60844727 -44.29587036 99.60844727 -45.61791992 99.20898438 C-49.05072443 97.98186766 -51.95821905 96.47643089 -55.11328125 94.65625 C-55.68088669 94.33060562 -56.24849213 94.00496124 -56.83329773 93.66944885 C-58.66269952 92.61808053 -60.48756133 91.55909269 -62.3125 90.5 C-63.57200421 89.77485501 -64.83177131 89.05016643 -66.09179688 88.32592773 C-71.57479513 85.16921487 -77.04199824 81.98689507 -82.48046875 78.75390625 C-83.2593042 78.29113281 -84.03813965 77.82835937 -84.84057617 77.3515625 C-86.23848662 76.51708345 -87.63340092 75.67755599 -89.0246582 74.83203125 C-91.96020835 73.07201807 -94.58663762 71.53760458 -98 71 C-98 70.34 -98 69.68 -98 69 C-98.67804688 68.75121094 -99.35609375 68.50242187 -100.0546875 68.24609375 C-103.56034954 66.76292904 -106.82898338 64.95337269 -110.125 63.0625 C-110.74503906 62.71509766 -111.36507813 62.36769531 -112.00390625 62.00976562 C-118.01416475 58.5781019 -118.01416475 58.5781019 -120 56 C-120.6875 52.8125 -120.6875 52.8125 -121 50 C-120.34 50 -119.68 50 -119 50 C-119.495 48.515 -119.495 48.515 -120 47 C-119.34 47 -118.68 47 -118 47 C-118 46.34 -118 45.68 -118 45 C-117.01 45 -116.02 45 -115 45 C-115 44.34 -115 43.68 -115 43 C-113.515 42.505 -113.515 42.505 -112 42 C-111.67 41.34 -111.34 40.68 -111 40 C-110.01 40 -109.02 40 -108 40 C-107.67 39.01 -107.34 38.02 -107 37 C-105.35678744 36.27745263 -103.68421674 35.62099612 -102 35 C-100.05838252 33.87534725 -98.14175918 32.70663558 -96.25 31.5 C-95.28578125 30.8915625 -94.3215625 30.283125 -93.328125 29.65625 C-90.90928657 28.20988348 -90.90928657 28.20988348 -90 26 C-89.01 26 -88.02 26 -87 26 C-86.505 24.515 -86.505 24.515 -86 23 C-82.74307106 21.43416878 -79.53392136 20.18571178 -76.125 19 C-75.42375 18.67 -74.7225 18.34 -74 18 C-73.505 16.515 -73.505 16.515 -73 15 C-70.7421875 13.31640625 -70.7421875 13.31640625 -67.875 11.5625 C-66.88113281 10.95148438 -65.88726562 10.34046875 -64.86328125 9.7109375 C-56.64608234 4.80079681 -56.64608234 4.80079681 -52.6875 2.875 C-50.80552739 2.00702329 -50.80552739 2.00702329 -49 0 C-46.67724823 -0.40047444 -44.34260643 -0.7397104 -42 -1 C-42 -1.66 -42 -2.32 -42 -3 C-40.63875 -2.938125 -40.63875 -2.938125 -39.25 -2.875 C-36.0046245 -2.99982213 -34.75803416 -3.48752965 -32 -5 C-19.90224011 -7.94442833 -10.64547889 -5.94166264 0 0 Z " fill="#FEFEFE" transform="translate(404,89)"/>
<path d="M0 0 C1.32 0 2.64 0 4 0 C4 0.66 4 1.32 4 2 C4.80953125 2.25265625 5.6190625 2.5053125 6.453125 2.765625 C10.65254297 4.22709645 14.6878879 5.94669613 18.75 7.75 C19.55493896 8.10707031 20.35987793 8.46414062 21.18920898 8.83203125 C26.12766363 11.05950034 30.72868985 13.51336701 35.30078125 16.42578125 C41.00403138 19.75198936 47.10142605 22.35238474 53.09423828 25.11010742 C55.75688383 26.35342577 58.37901206 27.67145515 61 29 C61.92039062 29.46019531 62.84078125 29.92039063 63.7890625 30.39453125 C70.859375 33.9296875 77.9296875 37.46484375 85 41 C85 41.66 85 42.32 85 43 C86.32 43 87.64 43 89 43 C89 43.66 89 44.32 89 45 C90.65 45.33 92.3 45.66 94 46 C94 46.66 94 47.32 94 48 C95.0828125 48.0928125 95.0828125 48.0928125 96.1875 48.1875 C102.01686023 49.8715374 106.02372844 55.88781591 109 61 C109.6875 63.875 109.6875 63.875 110 66 C110.66 66.33 111.32 66.66 112 67 C116.52941402 72.22265131 116.55498938 76.58333723 116.45410156 83.31982422 C116.45468567 84.34482529 116.45526978 85.36982635 116.45587158 86.42588806 C116.45309236 89.80250305 116.42200683 93.17822736 116.390625 96.5546875 C116.38316207 98.90023313 116.37746938 101.24578501 116.37347412 103.59133911 C116.35822209 109.75640156 116.31894336 115.92108539 116.2746582 122.08599854 C116.23369659 128.38019693 116.21546116 134.67445666 116.1953125 140.96875 C116.1524492 153.31266609 116.08420259 165.65630153 116 178 C115.01 178.33 114.02 178.66 113 179 C112.67 179.66 112.34 180.32 112 181 C108.13930677 181 107.09647064 180.93529415 104 179 C102.66666667 177.66666667 101.33333333 176.33333333 100 175 C96.90352936 173.06470585 95.86069323 173 92 173 C84.90255019 171.67954422 78.67295546 168.46333979 72.32080078 165.19213867 C67.49285329 162.71376216 62.61210761 160.45144006 57.625 158.3125 C41.83307499 151.50238698 41.83307499 151.50238698 36.625 147.5 C30.12118184 142.61443044 21.82961354 139.95740339 14 138 C14 137.34 14 136.68 14 136 C12.02 135.67 10.04 135.34 8 135 C8 134.01 8 133.02 8 132 C7.34 132 6.68 132 6 132 C5.896875 131.360625 5.79375 130.72125 5.6875 130.0625 C5.460625 129.381875 5.23375 128.70125 5 128 C4.01 127.67 3.02 127.34 2 127 C1.27095914 125.35965807 0.61344757 123.68698082 0 122 C-0.76290092 121.01873894 -0.76290092 121.01873894 -1.54121399 120.01765442 C-3.76592365 115.41560526 -3.39250825 111.01352394 -3.34057617 105.9675293 C-3.34101425 104.85489212 -3.34145233 103.74225494 -3.34190369 102.59590149 C-3.3398153 98.92182815 -3.31648107 95.24821229 -3.29296875 91.57421875 C-3.287373 89.02545928 -3.2831028 86.47669659 -3.28010559 83.92793274 C-3.26982533 77.90729328 -3.24618618 71.8868499 -3.21605712 65.86628896 C-3.18249363 59.01022023 -3.16602223 52.15414356 -3.15097082 45.29801309 C-3.11963592 31.19858471 -3.06688764 17.09930134 -3 3 C-2.34 3 -1.68 3 -1 3 C-0.67 2.01 -0.34 1.02 0 0 Z " fill="#FEFEFE" transform="translate(32,168)"/>
<path d="M0 0 C2.57347578 1.17173434 4.90235457 2.58351011 7.31640625 4.0546875 C12.86605642 6.99827847 18.45297597 9.79077823 24.31640625 12.0546875 C40.43535786 18.29259073 40.43535786 18.29259073 42.31640625 22.0546875 C44.20643887 22.49344507 46.09670815 22.93121329 47.98828125 23.36328125 C53.73467458 25.06984437 59.56194602 28.32080287 63.31640625 33.0546875 C63.31640625 33.7146875 63.31640625 34.3746875 63.31640625 35.0546875 C64.80140625 35.5496875 64.80140625 35.5496875 66.31640625 36.0546875 C66.81140625 38.5296875 66.81140625 38.5296875 67.31640625 41.0546875 C67.97640625 41.0546875 68.63640625 41.0546875 69.31640625 41.0546875 C69.31640625 42.0446875 69.31640625 43.0346875 69.31640625 44.0546875 C69.97640625 44.0546875 70.63640625 44.0546875 71.31640625 44.0546875 C72.15667021 45.82224276 72.98839347 47.59386013 73.81640625 49.3671875 C74.28046875 50.35332031 74.74453125 51.33945312 75.22265625 52.35546875 C76.31640625 55.0546875 76.31640625 55.0546875 76.31640625 58.0546875 C76.97640625 58.3846875 77.63640625 58.7146875 78.31640625 59.0546875 C78.31640625 60.0446875 78.31640625 61.0346875 78.31640625 62.0546875 C78.97640625 62.0546875 79.63640625 62.0546875 80.31640625 62.0546875 C80.55875 62.70695312 80.80109375 63.35921875 81.05078125 64.03125 C83.02084341 69.16856595 85.15362494 73.52136763 88.31640625 78.0546875 C89.00393926 79.71285534 89.67201908 81.37928086 90.31640625 83.0546875 C93.24956136 89.61115186 99.93656188 94.10455445 106.31640625 97.0546875 C106.31640625 97.7146875 106.31640625 98.3746875 106.31640625 99.0546875 C106.89390625 99.1578125 107.47140625 99.2609375 108.06640625 99.3671875 C110.67301783 100.16365215 112.28993735 101.24534027 114.31640625 103.0546875 C114.31640625 103.7146875 114.31640625 104.3746875 114.31640625 105.0546875 C115.30640625 105.0546875 116.29640625 105.0546875 117.31640625 105.0546875 C117.31640625 105.7146875 117.31640625 106.3746875 117.31640625 107.0546875 C118.30640625 107.0546875 119.29640625 107.0546875 120.31640625 107.0546875 C120.97640625 107.7146875 121.63640625 108.3746875 122.31640625 109.0546875 C122.93515625 109.3434375 123.55390625 109.6321875 124.19140625 109.9296875 C126.31640625 111.0546875 126.31640625 111.0546875 128.109375 112.8671875 C130.50899099 115.24556795 133.02526523 117.18902845 135.75390625 119.1796875 C136.68074219 119.86289062 137.60757813 120.54609375 138.5625 121.25 C141.21836987 123.13241134 141.21836987 123.13241134 144.1015625 124.109375 C145.19791016 124.57730469 145.19791016 124.57730469 146.31640625 125.0546875 C146.64640625 126.0446875 146.97640625 127.0346875 147.31640625 128.0546875 C146.65640625 128.0546875 145.99640625 128.0546875 145.31640625 128.0546875 C145.31640625 128.7146875 145.31640625 129.3746875 145.31640625 130.0546875 C143.02658285 131.0591009 140.73474635 132.05836362 138.44140625 133.0546875 C137.79042969 133.34085938 137.13945312 133.62703125 136.46875 133.921875 C131.54296875 136.0546875 131.54296875 136.0546875 129.31640625 136.0546875 C128.98640625 136.7146875 128.65640625 137.3746875 128.31640625 138.0546875 C121.75690292 141.88600681 114.6346929 144.86132182 107.69140625 147.9296875 C106.99265381 148.23994873 106.29390137 148.55020996 105.57397461 148.86987305 C100.55957555 151.0546875 100.55957555 151.0546875 98.31640625 151.0546875 C97.98640625 151.7146875 97.65640625 152.3746875 97.31640625 153.0546875 C94.79239317 154.41377147 92.27377684 155.6914385 89.69140625 156.9296875 C88.28156094 157.61254075 86.87269784 158.29742579 85.46484375 158.984375 C84.7699585 159.32259277 84.07507324 159.66081055 83.35913086 160.00927734 C81.38150397 161.02137228 79.49477795 162.12526902 77.59375 163.2734375 C72.95716206 165.79344239 69.46028375 166.08500078 64.31640625 165.0546875 C61.60415055 163.78267651 59.20392702 162.31306101 56.71484375 160.6484375 C54.46986996 159.15666338 52.24617637 157.9625563 49.81640625 156.8046875 C46.31640625 155.0546875 46.31640625 155.0546875 44.31640625 153.0546875 C41.85120377 151.75336982 39.3409207 150.56934438 36.82421875 149.37109375 C34.43481337 148.11684202 32.46354423 146.67599577 30.31640625 145.0546875 C28.43116956 144.09373262 28.43116956 144.09373262 26.56640625 143.3671875 C25.49390625 142.9340625 24.42140625 142.5009375 23.31640625 142.0546875 C23.31640625 141.3946875 23.31640625 140.7346875 23.31640625 140.0546875 C21.66640625 139.7246875 20.01640625 139.3946875 18.31640625 139.0546875 C18.31640625 138.3946875 18.31640625 137.7346875 18.31640625 137.0546875 C16.66640625 136.7246875 15.01640625 136.3946875 13.31640625 136.0546875 C13.31640625 135.3946875 13.31640625 134.7346875 13.31640625 134.0546875 C12.7344751 133.93158203 12.15254395 133.80847656 11.55297852 133.68164062 C9.28253551 133.0451929 7.56602235 132.20325693 5.53125 131.0234375 C4.48807617 130.42595703 4.48807617 130.42595703 3.42382812 129.81640625 C2.70775391 129.40003906 1.99167969 128.98367188 1.25390625 128.5546875 C-0.17310803 127.72939544 -1.60144393 126.90638332 -3.03125 126.0859375 C-3.9749646 125.53776367 -3.9749646 125.53776367 -4.93774414 124.97851562 C-6.83713208 123.91228445 -6.83713208 123.91228445 -9.68359375 123.0546875 C-9.68359375 122.3946875 -9.68359375 121.7346875 -9.68359375 121.0546875 C-10.67359375 121.0546875 -11.66359375 121.0546875 -12.68359375 121.0546875 C-12.68359375 120.3946875 -12.68359375 119.7346875 -12.68359375 119.0546875 C-13.34359375 119.0546875 -14.00359375 119.0546875 -14.68359375 119.0546875 C-14.68359375 104.5346875 -14.68359375 90.0146875 -14.68359375 75.0546875 C-14.35359375 75.0546875 -14.02359375 75.0546875 -13.68359375 75.0546875 C-13.35359375 64.1646875 -13.02359375 53.2746875 -12.68359375 42.0546875 C-13.34359375 42.0546875 -14.00359375 42.0546875 -14.68359375 42.0546875 C-14.68359375 29.8446875 -14.68359375 17.6346875 -14.68359375 5.0546875 C-14.02359375 5.0546875 -13.36359375 5.0546875 -12.68359375 5.0546875 C-12.43609375 4.4565625 -12.18859375 3.8584375 -11.93359375 3.2421875 C-8.58886287 -2.61109155 -5.83731641 -2.13188947 0 0 Z " fill="#FEFEFE" transform="translate(41.68359375,310.9453125)"/>
<path d="M0 0 C5.75 1.625 5.75 1.625 8 5 C8.20811559 7.75952028 8.30402718 10.41557213 8.30078125 13.17578125 C8.30506638 13.97856003 8.3093515 14.78133881 8.31376648 15.60844421 C8.31950824 17.30723122 8.32001117 19.00604281 8.31567383 20.70483398 C8.31252424 23.29258736 8.33593764 25.87918571 8.36132812 28.46679688 C8.36360231 30.11979023 8.36430406 31.77278665 8.36328125 33.42578125 C8.372491 34.19473221 8.38170074 34.96368317 8.39118958 35.75593567 C8.35010693 40.5748937 7.53956108 43.76404065 5 48 C4.34 48 3.68 48 3 48 C2.67 48.99 2.34 49.98 2 51 C1.195625 51.12375 0.39125 51.2475 -0.4375 51.375 C-1.283125 51.58125 -2.12875 51.7875 -3 52 C-3.33 52.66 -3.66 53.32 -4 54 C-5.97888961 54.72693904 -7.97954558 55.39816251 -10 56 C-10 56.66 -10 57.32 -10 58 C-10.99 58 -11.98 58 -13 58 C-13.33 58.66 -13.66 59.32 -14 60 C-17 62 -17 62 -20 62 C-20.33 62.66 -20.66 63.32 -21 64 C-22.7421875 65.2890625 -22.7421875 65.2890625 -24.875 66.625 C-25.92300781 67.29402344 -25.92300781 67.29402344 -26.9921875 67.9765625 C-29 69 -29 69 -32 69 C-32.33 69.66 -32.66 70.32 -33 71 C-34.77706084 72.10103609 -36.59679085 73.13403304 -38.4375 74.125 C-39.42621094 74.66382813 -40.41492188 75.20265625 -41.43359375 75.7578125 C-44 77 -44 77 -46 77 C-46 77.66 -46 78.32 -46 79 C-46.99 79 -47.98 79 -49 79 C-49.33 79.66 -49.66 80.32 -50 81 C-52.29203208 82.44302399 -54.57831463 83.80161157 -56.9375 85.125 C-57.58396484 85.49753906 -58.23042969 85.87007813 -58.89648438 86.25390625 C-63.73986951 89 -63.73986951 89 -66 89 C-66.33 89.66 -66.66 90.32 -67 91 C-72.08867447 94.78661155 -80.56818414 101 -87 101 C-87.33 101.66 -87.66 102.32 -88 103 C-89.33333333 103.33333333 -90.66666667 103.66666667 -92 104 C-92.33 104.66 -92.66 105.32 -93 106 C-98.46141499 109.76230811 -104.38249491 112.74114039 -110.3359375 115.6328125 C-114.51421344 117.77708901 -118.51322714 120.21611279 -122.53125 122.64453125 C-125 124 -125 124 -127 124 C-127 124.66 -127 125.32 -127 126 C-127.99 126 -128.98 126 -130 126 C-130.33 126.66 -130.66 127.32 -131 128 C-134 130 -134 130 -137 130 C-137.33 130.66 -137.66 131.32 -138 132 C-141 134 -141 134 -144 134 C-144.33 134.66 -144.66 135.32 -145 136 C-147 136.66666667 -149 137.33333333 -151 138 C-151.33 138.66 -151.66 139.32 -152 140 C-157.42307692 143 -157.42307692 143 -160 143 C-160.33 143.66 -160.66 144.32 -161 145 C-163.10508683 146.3164205 -165.20547862 147.54887304 -167.375 148.75 C-168.00116211 149.10126953 -168.62732422 149.45253906 -169.27246094 149.81445312 C-170.55678433 150.53325677 -171.84260268 151.24939563 -173.12988281 151.96289062 C-174.85860545 152.92158694 -176.58190051 153.89005277 -178.3046875 154.859375 C-185.73809524 159 -185.73809524 159 -188 159 C-188.33 159.66 -188.66 160.32 -189 161 C-192 163 -192 163 -195 163 C-195.33 163.66 -195.66 164.32 -196 165 C-197.92578125 166.25390625 -197.92578125 166.25390625 -200.3125 167.5625 C-201.48232422 168.21412109 -201.48232422 168.21412109 -202.67578125 168.87890625 C-205 170 -205 170 -207.23046875 170.52734375 C-207.81441406 170.68332031 -208.39835937 170.83929687 -209 171 C-209.495 171.99 -209.495 171.99 -210 173 C-210 172.34 -210 171.68 -210 171 C-210.66 170.67 -211.32 170.34 -212 170 C-211.525625 169.566875 -211.05125 169.13375 -210.5625 168.6875 C-208.76313043 166.97690387 -208.76313043 166.97690387 -208 164 C-207.02246356 162.97803008 -206.0194119 161.98020375 -205 161 C-203.17419095 158.69789293 -201.55756813 156.32964868 -199.9375 153.875 C-198 151 -198 151 -196 149 C-195.34 148.01 -194.68 147.02 -194 146 C-192 143 -192 143 -190 141 C-189.1028125 139.6078125 -189.1028125 139.6078125 -188.1875 138.1875 C-186.04177891 135.06087783 -183.67175282 132.67175282 -181 130 C-179.82425289 127.90010348 -179.82425289 127.90010348 -179 126 C-178.34 125.34 -177.68 124.68 -177 124 C-175.6559907 122.00715862 -174.32458708 120.00580329 -173 118 C-172.13148834 116.74548316 -171.25644503 115.49546363 -170.375 114.25 C-169.97023438 113.67765625 -169.56546875 113.1053125 -169.1484375 112.515625 C-168 111 -168 111 -166 109 C-165.67 108.34 -165.34 107.68 -165 107 C-164.34 107 -163.68 107 -163 107 C-162.9175 106.278125 -162.835 105.55625 -162.75 104.8125 C-161.84286169 101.41073132 -160.39989121 99.54533916 -158 97 C-157.34 97 -156.68 97 -156 97 C-155.75894531 96.47148437 -155.51789063 95.94296875 -155.26953125 95.3984375 C-153.63608027 92.31247165 -151.68060615 89.48453081 -149.6875 86.625 C-149.30916016 86.07328125 -148.93082031 85.5215625 -148.54101562 84.953125 C-146.58479273 82.13298641 -144.5651711 79.44358925 -142.33203125 76.8359375 C-140.42262388 74.51394462 -139.29854009 72.64244404 -138 70 C-136.44921875 68.3671875 -136.44921875 68.3671875 -134.6875 66.875 C-134.11386719 66.37742187 -133.54023438 65.87984375 -132.94921875 65.3671875 C-130.70912025 63.79597613 -128.55915206 62.97422266 -126 62 C-124.76238928 61.4343033 -123.52964225 60.85789768 -122.30078125 60.2734375 C-121.64916016 59.9640625 -120.99753906 59.6546875 -120.32617188 59.3359375 C-118.97114102 58.68930784 -117.61698791 58.04083594 -116.26367188 57.390625 C-111.21623884 55 -111.21623884 55 -109 55 C-108.505 54.01 -108.505 54.01 -108 53 C-106.28515625 52.01025391 -106.28515625 52.01025391 -104.0625 50.9765625 C-103.24910156 50.595 -102.43570313 50.2134375 -101.59765625 49.8203125 C-100.31181641 49.22863281 -100.31181641 49.22863281 -99 48.625 C-98.17371094 48.23828125 -97.34742188 47.8515625 -96.49609375 47.453125 C-94.00264101 46.29029414 -91.50267872 45.14282478 -89 44 C-88.154375 43.61038086 -87.30875 43.22076172 -86.4375 42.81933594 C-85.633125 42.45356445 -84.82875 42.08779297 -84 41.7109375 C-83.278125 41.3814209 -82.55625 41.0519043 -81.8125 40.71240234 C-80 40 -80 40 -78 40 C-77.67 39.34 -77.34 38.68 -77 38 C-74.35165079 36.59186772 -71.71253074 35.27274509 -69 34 C-67.94498291 33.50258301 -67.94498291 33.50258301 -66.86865234 32.99511719 C-65.41605224 32.31376514 -63.96248357 31.63447497 -62.50805664 30.95703125 C-55.08250229 27.49463705 -47.78043469 23.87671728 -40.5625 20 C-31.63938852 15.21543991 -22.48689631 11.07450299 -13.21728516 7.01269531 C-10.32589046 5.69211557 -7.51723127 4.23051813 -4.71557617 2.72998047 C-3 2 -3 2 0 2 C0 1.34 0 0.68 0 0 Z " fill="#FEFEFE" transform="translate(523,384)"/>
<path d="M0 0 C1.41805831 0.28482368 2.83440379 0.57818144 4.25 0.875 C5.03890625 1.03742188 5.8278125 1.19984375 6.640625 1.3671875 C8.98891927 1.99702802 10.85249057 2.87571565 13 4 C14.53646283 4.61728068 16.07857223 5.22062618 17.625 5.8125 C22.18324 7.60878421 26.52328772 9.69505928 30.87109375 11.94921875 C33.09723307 13.10814462 33.09723307 13.10814462 36 14 C36 14.66 36 15.32 36 16 C36.99 15.67 37.98 15.34 39 15 C40.6864658 15.92278317 42.37326618 16.85173597 43.98828125 17.89453125 C46.05184759 19.11030461 46.05184759 19.11030461 48.70703125 19.87890625 C52.80242764 21.27318711 56.52998458 23.15729772 60.375 25.125 C61.11105469 25.49753906 61.84710938 25.87007813 62.60546875 26.25390625 C64.40550358 27.1656122 66.20301402 28.08229932 68 29 C68 29.66 68 30.32 68 31 C68.81855469 31.07605469 69.63710937 31.15210938 70.48046875 31.23046875 C74.92517895 32.20228663 78.36584435 34.10762275 82.3125 36.3125 C83.81649664 37.13243485 85.32169608 37.95016749 86.828125 38.765625 C87.54548828 39.15427734 88.26285156 39.54292969 89.00195312 39.94335938 C92.58502496 41.83821946 96.262878 43.43720353 100 45 C100 45.66 100 46.32 100 47 C100.81210938 47.07347656 101.62421875 47.14695312 102.4609375 47.22265625 C107.0053395 48.2208196 110.58029181 50.19395092 114.625 52.4375 C116.11707202 53.2489103 117.60925585 54.06011505 119.1015625 54.87109375 C119.75463379 55.23130615 120.40770508 55.59151855 121.08056641 55.96264648 C123.03385003 57.01829417 125.0091589 58.01730932 127 59 C127 59.66 127 60.32 127 61 C127.99 61 128.98 61 130 61 C130 61.66 130 62.32 130 63 C128.93458984 63.29003906 128.93458984 63.29003906 127.84765625 63.5859375 C126.46900391 63.97652344 126.46900391 63.97652344 125.0625 64.375 C124.14597656 64.63023437 123.22945313 64.88546875 122.28515625 65.1484375 C119.83254913 65.76660104 119.83254913 65.76660104 119 68 C117.32910156 68.89233398 117.32910156 68.89233398 115.140625 69.80859375 C114.32658203 70.15647949 113.51253906 70.50436523 112.67382812 70.86279297 C111.79146484 71.23807129 110.90910156 71.61334961 110 72 C106.24332609 73.67270423 102.49737209 75.36907372 98.75 77.0625 C97.78320312 77.49626953 96.81640625 77.93003906 95.8203125 78.37695312 C94.88445312 78.80041016 93.94859375 79.22386719 92.984375 79.66015625 C91.72705566 80.22682007 91.72705566 80.22682007 90.44433594 80.80493164 C87.91690704 81.99327157 87.91690704 81.99327157 85.32177734 83.63720703 C81.55572327 85.84773425 79.19419647 84.87942829 75 84 C73.515 83.01 73.515 83.01 72 82 C72 81.34 72 80.68 72 80 C71.319375 79.773125 70.63875 79.54625 69.9375 79.3125 C66.80836205 77.91437453 64.36076623 76.18909099 61.6484375 74.12109375 C59.87939685 72.80867708 59.87939685 72.80867708 57 72 C57 71.34 57 70.68 57 70 C54.66785852 68.79371992 52.50357861 67.8345262 50 67 C50 66.34 50 65.68 50 65 C49.28070313 64.74476563 48.56140625 64.48953125 47.8203125 64.2265625 C43.75167422 62.45709931 40.50931007 59.85051912 36.97265625 57.19921875 C35.05536228 55.78077394 33.105909 54.40434372 31.12109375 53.08203125 C19.44250505 45.20426279 13.69982564 34.20256274 7.98779297 21.71801758 C6.98720939 19.5345889 5.96568636 17.36185148 4.94140625 15.18945312 C4.29303476 13.79484483 3.64585369 12.39968234 3 11.00390625 C2.69698975 10.35909805 2.39397949 9.71428986 2.08178711 9.04994202 C0.56587613 5.70952627 0 3.75236128 0 0 Z " fill="#FEFEFE" transform="translate(120,349)"/>
<path d="M0 0 C0.66 0.99 1.32 1.98 2 3 C1.34 3.66 0.68 4.32 0 5 C-2.125 4.625 -2.125 4.625 -4 4 C-2.68 2.68 -1.36 1.36 0 0 Z " fill="#F3F3F3" transform="translate(346,500)"/>
<path d="M0 0 C2 1 2 1 2 1 Z " fill="#EEEEEE" transform="translate(139,354)"/>
<path d="" fill="#EEEEEE" transform="translate(0,0)"/>
<path d="" fill="#FAFAFA" transform="translate(0,0)"/>
<path d="" fill="#FAFAFA" transform="translate(0,0)"/>
<path d="" fill="#FAFAFA" transform="translate(0,0)"/>
</svg>
